<svg xmlns="http://www.w3.org/2000/svg" xmlns:xlink="http://www.w3.org/1999/xlink" xml:space="preserve" style="shape-rendering:geometricPrecision;text-rendering:geometricPrecision;image-rendering:optimizeQuality;" viewBox="0 0 0.333331 0.41666375" x="0px" y="0px" fill-rule="evenodd" clip-rule="evenodd"><defs><style type="text/css">
   
    .fil0 {fill:black}
   
  </style></defs><g><path class="fil0" d="M0.167138 0.104799c-0.00547244,0 -0.00991339,0.00442913 -0.00991339,0.00988583 0,0.0045315 0.00305512,0.00834646 0.00722047,0.00951969l-6.69291e-005 0.00119685 -0.000476378 3.93701e-006 3.93701e-006 3.14961e-005c-0.0115,0.000334646 -0.0185827,0.00243701 -0.0308701,0.00930709l0.0314606 0 0.00508661 0 0.0314606 0c-0.0122874,-0.00687008 -0.0193701,-0.00897638 -0.0308701,-0.00930709l3.93701e-006 -3.14961e-005 -0.000251969 0 -5.51181e-005 -0.0012126c0.00414567,-0.00118504 0.0071811,-0.00499213 0.0071811,-0.00950787 0,-0.00545669 -0.00443701,-0.00988583 -0.00991339,-0.00988583z"/><path class="fil0" d="M0.189429 0.210626c0.00164961,0.00101969 0.00319291,0.00233858 0.00461811,0.0040748 0.0113937,0.00409055 0.0206024,0.00429528 0.0260945,0.0152559l-0.106634 0c0.00549213,-0.0109567 0.0147008,-0.0111654 0.0260945,-0.0152559 0.00170079,-0.00207087 0.0035748,-0.00354724 0.00558661,-0.00463386 -0.0108268,-0.00297638 -0.020937,-0.00834646 -0.0296417,-0.0166496 0.00323228,0.00688189 -0.00214961,0.013748 -0.0124016,0.0126575 -0.00803543,-0.000858268 -0.00938583,-0.00856299 -0.00495669,-0.010815 0.0112598,-0.00572835 -0.096311,-0.00827953 -0.0567598,-0.0516811 0.00886614,-0.0122559 0.0445197,-0.0114646 0.0627874,0.00185039 0.00395669,-0.00313386 0.0141417,0.000555118 0.021878,-0.00744488l0.0804016 0.00011811c0.0331417,0.0173858 0.0444173,0.0146575 0.0563504,-0.0216299 0.0047126,-0.00897244 0.00809055,-0.0161575 0.0183976,-0.0117756l0.0184173 0.00782283c0.00690157,0.00293701 -0.0232165,-0.00243701 -0.0231654,0.021252 -0.000275591,0.0321181 -0.042437,0.0675433 -0.0870669,0.0768543zm-0.0929252 -0.0577953c-0.00817323,0.0114921 -0.00519291,0.0241693 0.00680315,0.0330551 -0.0291732,-0.00676378 -0.0767047,-0.0129213 -0.0539016,-0.0359173 0.0101102,-0.00872047 0.0293622,-0.00983858 0.0470984,0.0028622z"/></g><text x="0" y="15.333331" fill="#000000" font-size="5px" font-weight="bold" font-family="'Helvetica Neue', Helvetica, Arial-Unicode, Arial, Sans-serif">Created by Abdul Wahhab</text><text x="0" y="20.333331" fill="#000000" font-size="5px" font-weight="bold" font-family="'Helvetica Neue', Helvetica, Arial-Unicode, Arial, Sans-serif">from the Noun Project</text></svg>